<svg xmlns="http://www.w3.org/2000/svg" xmlns:xlink="http://www.w3.org/1999/xlink" xmlns:lucid="lucid" width="1320" height="680"><g transform="translate(20 20)" lucid:page-tab-id="0_0"><path d="M0 5c0-2.76 2.24-5 5-5h1270c2.76 0 5 2.24 5 5v630c0 2.76-2.24 5-5 5H5c-2.76 0-5-2.24-5-5z" stroke="#000" stroke-width="2" fill="#fff"/><path d="M15.6 52c0-6.63 5.38-12 12-12h423.77c6.63 0 12 5.37 12 12v71.74c0 6.63-5.37 12-12 12H27.6c-6.62 0-12-5.37-12-12z" stroke="#000" stroke-opacity="0" stroke-width="2" fill="#fff" fill-opacity="0"/><use xlink:href="#a" transform="matrix(1,0,0,1,20.60757734026734,45) translate(55.42666666666665 48.81583333333333)"/><use xlink:href="#b" transform="matrix(1,0,0,1,20.60757734026734,45) translate(164.36 48.81583333333333)"/><use xlink:href="#c" transform="matrix(1,0,0,1,20.60757734026734,45) translate(284.28 48.81583333333333)"/><path d="M134.58 136.8c0-6.63 5.38-12 12-12H363.6c6.63 0 12 5.37 12 12v27.8c0 6.63-5.37 12-12 12H146.6c-6.62 0-12-5.37-12-12z" stroke="#000" stroke-opacity="0" stroke-width="2" fill="#fff" fill-opacity="0"/><g filter="url(#d)"><path d="M80 205c0-2.76 2.24-5 5-5h490c2.76 0 5 2.24 5 5v114c0 2.76-2.24 5-5 5H85c-2.76 0-5-2.24-5-5z" fill="#fff"/><path d="M80 268h500v28H80z" fill="#e6e6e6"/><path d="M80 205c0-2.76 2.24-5 5-5h490c2.76 0 5 2.24 5 5v114c0 2.76-2.24 5-5 5H85c-2.76 0-5-2.24-5-5zM80 240h500M230.94 240v84" stroke="#000" fill="none"/><use xlink:href="#e" transform="matrix(1,0,0,1,90.00000000000003,200) translate(192.16666666666666 24.933333333333334)"/><use xlink:href="#f" transform="matrix(1,0,0,1,85.00000000000003,242.5) translate(59.799 15.495999999999999)"/><use xlink:href="#g" transform="matrix(1,0,0,1,235.93996361431087,242.5) translate(123.686 15.495999999999999)"/><use xlink:href="#h" transform="matrix(1,0,0,1,235.93996361431087,242.5) translate(174.428 15.495999999999999)"/><use xlink:href="#i" transform="matrix(1,0,0,1,85.00000000000003,270.5) translate(18.192000000000007 15.495999999999999)"/><use xlink:href="#j" transform="matrix(1,0,0,1,235.93996361431087,270.5) translate(131.62400000000002 15.495999999999999)"/><use xlink:href="#k" transform="matrix(1,0,0,1,85.00000000000003,298.5) translate(38.892 15.495999999999999)"/><g><use xlink:href="#l" transform="matrix(1,0,0,1,235.93996361431087,298.5) translate(88.08200000000001 15.495999999999999)"/><use xlink:href="#m" transform="matrix(1,0,0,1,235.93996361431087,298.5) translate(133.19 15.495999999999999)"/><use xlink:href="#n" transform="matrix(1,0,0,1,235.93996361431087,298.5) translate(171.98000000000002 15.495999999999999)"/></g></g><g filter="url(#o)"><path d="M500 25c0-2.76 2.24-5 5-5h455.67c2.76 0 5 2.24 5 5v86c0 2.76-2.24 5-5 5H505c-2.76 0-5-2.24-5-5z" fill="#fff"/><path d="M500 88h465.67v28H500z" fill="#e6e6e6"/><path d="M500 25c0-2.76 2.24-5 5-5h455.67c2.76 0 5 2.24 5 5v86c0 2.76-2.24 5-5 5H505c-2.76 0-5-2.24-5-5zM500 60h465.67M634.8 60v56" stroke="#000" fill="none"/><use xlink:href="#p" transform="matrix(1,0,0,1,510,20) translate(185.16666666666666 24.933333333333334)"/><use xlink:href="#q" transform="matrix(1,0,0,1,505,62.5) translate(51.799 15.495999999999999)"/><use xlink:href="#r" transform="matrix(1,0,0,1,639.8106043463679,62.5) translate(114.186 15.495999999999999)"/><use xlink:href="#s" transform="matrix(1,0,0,1,639.8106043463679,62.5) translate(164.928 15.495999999999999)"/><use xlink:href="#t" transform="matrix(1,0,0,1,505,90.5) translate(17.131 15.495999999999999)"/><g><use xlink:href="#u" transform="matrix(1,0,0,1,639.8106043463679,90.5) translate(122.12400000000001 15.495999999999999)"/></g></g><g filter="url(#v)"><path d="M780 177c0-2.76 2.24-5 5-5h457.5c2.76 0 5 2.24 5 5v170c0 2.76-2.24 5-5 5H785c-2.76 0-5-2.24-5-5z" fill="#fff"/><path d="M780 240h467.5v28H780zM780 296h467.5v28H780z" fill="#e6e6e6"/><path d="M780 177c0-2.76 2.24-5 5-5h457.5c2.76 0 5 2.24 5 5v170c0 2.76-2.24 5-5 5H785c-2.76 0-5-2.24-5-5zM780 212h467.5M948.6 212v140" stroke="#000" fill="none"/><use xlink:href="#w" transform="matrix(1,0,0,1,789.9999999999999,172) translate(192.9922222222222 25.42666666666667)"/><use xlink:href="#q" transform="matrix(1,0,0,1,784.9999999999999,214.5) translate(68.799 15.495999999999999)"/><use xlink:href="#r" transform="matrix(1,0,0,1,953.6058488636235,214.5) translate(98.186 15.495999999999999)"/><use xlink:href="#s" transform="matrix(1,0,0,1,953.6058488636235,214.5) translate(148.928 15.495999999999999)"/><use xlink:href="#x" transform="matrix(1,0,0,1,784.9999999999999,242.5) translate(42.132000000000005 15.495999999999999)"/><use xlink:href="#y" transform="matrix(1,0,0,1,953.6058488636235,242.5) translate(77.75600000000001 15.495999999999999)"/><use xlink:href="#z" transform="matrix(1,0,0,1,953.6058488636235,242.5) translate(159.00799999999998 15.495999999999999)"/><use xlink:href="#A" transform="matrix(1,0,0,1,784.9999999999999,270.5) translate(40.926 15.495999999999999)"/><use xlink:href="#B" transform="matrix(1,0,0,1,953.6058488636235,270.5) translate(77.75600000000001 15.495999999999999)"/><use xlink:href="#C" transform="matrix(1,0,0,1,953.6058488636235,270.5) translate(159.00799999999998 15.495999999999999)"/><use xlink:href="#D" transform="matrix(1,0,0,1,784.9999999999999,298.5) translate(16.32900000000003 15.495999999999999)"/><g><use xlink:href="#E" transform="matrix(1,0,0,1,953.6058488636235,298.5) translate(62.98700000000001 15.495999999999999)"/><use xlink:href="#z" transform="matrix(1,0,0,1,953.6058488636235,298.5) translate(173.777 15.495999999999999)"/></g><g><use xlink:href="#F" transform="matrix(1,0,0,1,784.9999999999999,326.5) translate(47.892 15.495999999999999)"/></g><g><use xlink:href="#G" transform="matrix(1,0,0,1,953.6058488636235,326.5) translate(62.58200000000001 15.495999999999999)"/><use xlink:href="#H" transform="matrix(1,0,0,1,953.6058488636235,326.5) translate(107.69 15.495999999999999)"/><use xlink:href="#I" transform="matrix(1,0,0,1,953.6058488636235,326.5) translate(146.48000000000002 15.495999999999999)"/></g></g><g filter="url(#J)"><path d="M460 425c0-2.76 2.24-5 5-5h471.2c2.76 0 5 2.24 5 5v142c0 2.76-2.24 5-5 5H465c-2.76 0-5-2.24-5-5z" fill="#fff"/><path d="M460 488h481.2v28H460zM460 544h481.2v28H460z" fill="#e6e6e6"/><path d="M460 425c0-2.76 2.24-5 5-5h471.2c2.76 0 5 2.24 5 5v142c0 2.76-2.24 5-5 5H465c-2.76 0-5-2.24-5-5zM460 460h481.2M594.3 460v112" stroke="#000" fill="none"/><use xlink:href="#K" transform="matrix(1,0,0,1,469.99999999999994,420) translate(183.42222222222222 24.933333333333334)"/><use xlink:href="#L" transform="matrix(1,0,0,1,464.99999999999994,462.5) translate(51.799 15.495999999999999)"/><use xlink:href="#M" transform="matrix(1,0,0,1,599.2874469375363,462.5) translate(122.186 15.495999999999999)"/><use xlink:href="#N" transform="matrix(1,0,0,1,599.2874469375363,462.5) translate(172.928 15.495999999999999)"/><use xlink:href="#O" transform="matrix(1,0,0,1,464.99999999999994,490.5) translate(0.840999999999994 15.495999999999999)"/><use xlink:href="#P" transform="matrix(1,0,0,1,599.2874469375363,490.5) translate(125.381 15.495999999999999)"/><use xlink:href="#Q" transform="matrix(1,0,0,1,464.99999999999994,518.5) translate(36.094 15.495999999999999)"/><use xlink:href="#R" transform="matrix(1,0,0,1,599.2874469375363,518.5) translate(78.293 15.495999999999999)"/><use xlink:href="#S" transform="matrix(1,0,0,1,599.2874469375363,518.5) translate(123.401 15.495999999999999)"/><use xlink:href="#T" transform="matrix(1,0,0,1,599.2874469375363,518.5) translate(162.191 15.495999999999999)"/><g><use xlink:href="#U" transform="matrix(1,0,0,1,464.99999999999994,546.5) translate(36.868 15.495999999999999)"/></g><g><use xlink:href="#R" transform="matrix(1,0,0,1,599.2874469375363,546.5) translate(92.558 15.495999999999999)"/><use xlink:href="#S" transform="matrix(1,0,0,1,599.2874469375363,546.5) translate(137.666 15.495999999999999)"/><use xlink:href="#V" transform="matrix(1,0,0,1,599.2874469375363,546.5) translate(176.45600000000002 15.495999999999999)"/></g></g><path d="M96.15 309.25H42c-6.63 0-12-5.37-12-12V172c0-6.63 5.37-12 12-12h406c6.63 0 12-5.37 12-12V83.92c0-6.62 5.37-12 12-12h59" stroke="#0c7cba" stroke-width="3" fill="none"/><path d="M113.7 319.25l-20-10 20-10M113.7 309.25h-20" stroke="#0c7cba" stroke-width="3" fill="#fff"/><path d="M530.96 71.92h1.54M472.4 556.8H362c-6.63 0-12 5.38-12 12V608c0 6.63 5.37 12 12 12h626c6.63 0 12-5.37 12-12V402c0-6.63-5.37-12-12-12h-46c-6.63 0-12-5.37-12-12V236.1c0-6.64-5.37-12-12-12h-33.5" stroke="#0c7cba" stroke-width="3" fill="none"/><path d="M489.97 566.8l-20-10 20-10M489.97 556.8h-20" stroke="#0c7cba" stroke-width="3" fill="#fff"/><path d="M884.54 224.1H883M181.24 252.9H208c6.63 0 12 5.4 12 12V348c0 6.63 5.37 12 12 12h106c6.63 0 12 5.37 12 12v145.5c0 6.6 5.37 12 12 12h109.1M181.28 252.9h-1.54" stroke="#0c7cba" stroke-width="3" fill="none"/><path d="M488.68 539.5l-20-10 20-10M488.68 529.5h-20" stroke="#0c7cba" stroke-width="3" fill="#fff"/><path d="M614.43 73.18H638c6.63 0 12 5.38 12 12v127.26c0 6.62 5.37 12 12 12h161.54" stroke="#0c7cba" stroke-width="3" fill="none"/><path d="M596.86 63.18l20 10-20 10M596.86 73.18h20M841.1 234.44l-20-10 20-10M841.1 224.44h-20" stroke="#0c7cba" stroke-width="3" fill="#fff"/><defs><path d="M123-531c1-86-22-90-99-94v-42c190-15 435-31 582 14 136 41 222 158 222 302 0 135-84 258-204 310C489 18 223-6 23 0v-42c78-3 100-9 100-94v-395zm545 196c2-216-154-328-397-292v502c0 73 11 83 91 83 191 0 305-111 306-293" id="W"/><path d="M147-558c-47 0-83-32-83-73 0-40 40-74 88-74 46 0 83 33 83 74s-39 73-88 73zm72 439c-3 69 14 79 66 85V0H17v-34c52 3 71-15 71-75v-202c12-50-41-50-72-67v-26l183-60h20v345" id="X"/><path d="M220 12c-28 0-77-8-111-16-6 0-12 4-22 14H57L45-126h34c24 60 61 91 112 91 47 0 73-53 39-84-14-12-13-13-80-56-78-50-104-84-104-138 0-125 169-167 287-114l2 115h-33c-20-60-56-93-102-93-28 0-49 18-49 42 0 27 20 48 78 81 68 39 75 44 97 66 23 23 36 56 36 92 0 79-60 136-142 136" id="Y"/><path d="M684 3c-67-26-160 12-248 12C218 15 47-137 47-332c0-197 181-352 412-352 66 0 139 25 205 45 9 0 15-3 21-11h27l10 188h-43c-33-107-110-167-213-167-153 0-259 116-259 285 0 173 118 306 272 306 98 0 180-56 223-154h43c-7 48-37 146-61 195" id="Z"/><path d="M335-34c67-8 63-15 63-101 0-92 21-234-70-234-29 0-73 17-109 40v194c0 93 7 101 67 101V0H14v-34c68 0 75-5 74-101v-437c6-46-11-51-73-72v-19l177-54h27v349c71-49 147-81 193-81 78 0 117 63 117 191v123c0 91 7 101 59 101V0H335v-34" id="aa"/><path d="M251-450c91 0 175 40 175 150 0 55-2 180 4 217 10 24 27 21 49 4l16 25c-35 37-87 64-122 64-40 0-66-22-75-64-36 29-76 65-134 65C87 11 39-32 39-101c0-74 46-111 122-130 63-16 104-39 132-64 7-62-13-111-66-112-43-1-65 35-56 83L51-282c-4-17-5-25-5-36 0-85 127-132 205-132zm-83 327c0 44 22 74 54 74 18 0 32-8 73-44v-154c-20 16-28 20-69 39-43 21-58 43-58 85" id="ab"/><path d="M205 11C114 11 84-40 84-152v-233H27v-21c61-23 138-105 158-166h30v130h142l-15 57H215v242c-3 62 8 72 50 81 26 0 51-17 81-54l16 30c-33 57-97 97-157 97" id="ac"/><g id="a"><use transform="matrix(0.02666666666666667,0,0,0.02666666666666667,0,0)" xlink:href="#W"/><use transform="matrix(0.02666666666666667,0,0,0.02666666666666667,23.333333333333336,0)" xlink:href="#X"/><use transform="matrix(0.02666666666666667,0,0,0.02666666666666667,31.520000000000003,0)" xlink:href="#Y"/><use transform="matrix(0.02666666666666667,0,0,0.02666666666666667,42.24,0)" xlink:href="#Z"/><use transform="matrix(0.02666666666666667,0,0,0.02666666666666667,63.17333333333334,0)" xlink:href="#aa"/><use transform="matrix(0.02666666666666667,0,0,0.02666666666666667,79.38666666666667,0)" xlink:href="#ab"/><use transform="matrix(0.02666666666666667,0,0,0.02666666666666667,92.4,0)" xlink:href="#ac"/><path d="M-1.33 1.33h111.6v1.33H-1.33z"/></g><path d="M74-22v-539c8-60-28-61-66-78v-26l163-52h34v357c62-57 127-89 179-89 97 0 173 91 173 206C557-96 441 12 285 12 236 12 137-4 74-22zm131-158c0 102 29 146 96 146 76 0 121-60 121-161 0-155-137-225-217-114v129" id="ad"/><path d="M37-209c0-140 96-240 230-240 104 0 172 56 185 159 3 17 8 26 21 34v24H174c6 91 66 164 136 164 38 0 78-23 129-77l24 21C402-39 316 11 233 11 117 11 37-79 37-209zm135-57h153c-1-82-29-132-76-132-49-1-81 58-77 132" id="ae"/><g id="b"><use transform="matrix(0.02666666666666667,0,0,0.02666666666666667,0,0)" xlink:href="#W"/><use transform="matrix(0.02666666666666667,0,0,0.02666666666666667,23.333333333333336,0)" xlink:href="#ab"/><use transform="matrix(0.02666666666666667,0,0,0.02666666666666667,36.34666666666667,0)" xlink:href="#ac"/><use transform="matrix(0.02666666666666667,0,0,0.02666666666666667,46.53333333333334,0)" xlink:href="#ab"/><use transform="matrix(0.02666666666666667,0,0,0.02666666666666667,59.733333333333334,0)" xlink:href="#ad"/><use transform="matrix(0.02666666666666667,0,0,0.02666666666666667,75.57333333333334,0)" xlink:href="#ab"/><use transform="matrix(0.02666666666666667,0,0,0.02666666666666667,89.04,0)" xlink:href="#Y"/><use transform="matrix(0.02666666666666667,0,0,0.02666666666666667,99.76,0)" xlink:href="#ae"/><path d="M-1.33 1.33h122.6v1.33H-1.34z"/></g><path d="M320 15c-43 0-88-12-180-35-9 0-17 6-22 17H90L63-197h41C141-91 203-36 289-36c70 0 124-46 124-105 0-35-19-68-54-95-24-19-29-23-123-71S68-400 68-509c0-102 90-175 218-175 43 0 113 15 165 28 7 0 12-2 21-11h23l20 173h-43c-22-86-92-142-175-142-60 0-105 32-105 74 0 39 28 70 97 106 87 46 101 55 140 81 85 57 123 116 123 191C552-73 450 15 320 15" id="af"/><path d="M37-201c0-140 121-249 277-249 93 0 163 39 163 91 0 32-22 54-55 54-32 0-47-7-90-57-77-90-151-8-151 125 0 114 54 193 133 193 47 0 92-26 136-77l31 18C431-29 356 11 262 11 131 11 37-78 37-201" id="ag"/><path d="M219-119c-3 71 16 81 72 85V0H20v-34c50 2 68-17 68-75v-215c5-24-42-42-70-49v-27l181-61h20v123c117-83 176-111 232-111 61 0 102 41 111 111 47-38 178-111 237-111 78 0 112 56 112 184v130c1 84-3 93 60 101V0H719v-34c48-6 61-36 61-141v-64c0-91-19-129-66-129-34 0-74 18-148 67v182c-3 65 14 79 60 85V0H374v-34c95 9 61-147 61-229 0-71-21-105-65-105-39 0-81 19-151 69v180" id="ah"/><g id="c"><use transform="matrix(0.02666666666666667,0,0,0.02666666666666667,0,0)" xlink:href="#af"/><use transform="matrix(0.02666666666666667,0,0,0.02666666666666667,16.080000000000002,0)" xlink:href="#ag"/><use transform="matrix(0.02666666666666667,0,0,0.02666666666666667,29.30666666666667,0)" xlink:href="#aa"/><use transform="matrix(0.02666666666666667,0,0,0.02666666666666667,45.44,0)" xlink:href="#ae"/><use transform="matrix(0.02666666666666667,0,0,0.02666666666666667,58.69333333333333,0)" xlink:href="#ah"/><use transform="matrix(0.02666666666666667,0,0,0.02666666666666667,85.09333333333333,0)" xlink:href="#ab"/><path d="M-1.33 1.33H99.63v1.33H-1.33z"/></g><path d="M219-119c-3 72 16 82 74 85V0H20v-34c50 2 68-17 68-75v-215c3-22-38-42-73-49v-27l184-61h20v96c47-32 159-93 199-84 134-1 112 173 112 314 1 86-3 93 62 101V0H338v-34c48-6 61-36 61-141v-64c-1-166-79-150-180-82v202" id="ai"/><path d="M219-119c-3 67 14 79 64 85V0H17v-34c52 3 71-15 71-75v-442c8-76-34-61-74-81v-32l186-53h19v598" id="aj"/><g id="e"><use transform="matrix(0.022222222222222223,0,0,0.022222222222222223,0,0)" xlink:href="#Z"/><use transform="matrix(0.022222222222222223,0,0,0.022222222222222223,17.444444444444446,0)" xlink:href="#aa"/><use transform="matrix(0.022222222222222223,0,0,0.022222222222222223,30.955555555555563,0)" xlink:href="#ab"/><use transform="matrix(0.022222222222222223,0,0,0.022222222222222223,41.95555555555556,0)" xlink:href="#ai"/><use transform="matrix(0.022222222222222223,0,0,0.022222222222222223,55.600000000000016,0)" xlink:href="#ai"/><use transform="matrix(0.022222222222222223,0,0,0.022222222222222223,69.04444444444445,0)" xlink:href="#ae"/><use transform="matrix(0.022222222222222223,0,0,0.022222222222222223,80,0)" xlink:href="#aj"/><use transform="matrix(0.022222222222222223,0,0,0.022222222222222223,86.73333333333333,0)" xlink:href="#Y"/></g><path d="M47 0v-20c71-4 80-21 80-115v-397c0-94-9-111-80-115v-20h260v20c-37-1-62 6-75 21-14 15-16 29-16 94v397c0 75 1 78 16 94 13 15 38 22 75 21V0H47" id="ak"/><path d="M348-677c248 0 415 108 415 320C763-171 614-10 401-2 301 2 134-1 23 0v-20c40 1 73-5 87-21 14-17 16-18 16-94v-398c0-64-4-80-16-95s-40-20-87-19v-20c185-7 293-10 325-10zM226-35c10 12 25 15 69 15 139 0 191-14 254-66 74-62 114-150 114-253 0-162-88-278-232-304-59-11-144-15-216-10v558c0 43 1 50 11 60" id="al"/><g id="f"><use transform="matrix(0.018,0,0,0.018,0,0)" xlink:href="#ak"/><use transform="matrix(0.018,0,0,0.018,6.624,0)" xlink:href="#al"/></g><path d="M40 0v-20c38-3 75-4 79-20 8-12 8-12 8-88v-429c0-60-1-64-11-76-11-13-15-14-67-14H23v-20c247-16 533-47 544 179 7 155-168 235-351 197 3 66-8 201 10 241 12 27 64 33 112 30V0H40zm427-490c0-138-103-189-251-162v341c139 35 251-49 251-179" id="am"/><path d="M22 0v-20c40 2 75-4 89-21s16-18 16-94v-397c0-76-2-77-16-94s-49-23-89-21v-20h289v20c-38-1-66 6-79 21-15 16-16 18-16 94v202c52-7 96-37 163-114 67-76 107-140 107-169 0-26-13-32-74-34v-20h281v20c-108 3-128 16-192 113-65 97-113 148-163 184 16 3 25 9 55 36 54 50 124 128 203 223 56 66 59 65 156 71V0H437v-20c50-1 70-10 70-31 0-14-9-28-51-76-62-71-128-136-166-164-23-16-43-22-74-19v175c0 76 2 77 16 94 14 16 45 22 84 21V0H22" id="an"/><path d="M418-98C381-53 308 13 227 13 122 13 40-83 40-207c0-115 76-230 209-230 86 0 128 35 154 107 7 19 24 23 21 50H111C88-151 163-39 270-40c54 0 95-22 136-71zM114-300h220c-11-70-54-116-108-116-53 0-93 41-112 116" id="ao"/><path d="M127 171c41-10 57-31 88-108l21-52L88-304c-40-84-51-98-103-101v-20h216v20c-44 1-63 10-63 30 0 11 2 15 25 65L271-78l79-199c22-54 27-71 27-86 0-30-16-40-67-42v-20h178v20c-52 8-67 28-111 138L238 81c-37 94-45 111-62 136-17 23-33 33-54 33-24 0-43-16-43-37s14-33 48-42" id="ap"/><path d="M174 32c0-33-20-18-44-18-25 0-45-22-45-49 0-30 25-54 58-54 43 0 75 38 75 90 0 66-49 130-119 158l-7-20c52-30 82-69 82-107" id="aq"/><g id="g"><use transform="matrix(0.018,0,0,0.018,0,0)" xlink:href="#am"/><use transform="matrix(0.018,0,0,0.018,10.889999999999999,0)" xlink:href="#an"/><use transform="matrix(0.018,0,0,0.018,24.281999999999996,0)" xlink:href="#ao"/><use transform="matrix(0.018,0,0,0.018,32.525999999999996,0)" xlink:href="#ap"/><use transform="matrix(0.018,0,0,0.018,41.22,0)" xlink:href="#aq"/></g><path d="M257 17c-35 0-103-28-150-28-9 0-15 3-20 11H69L47-163h21C91-71 153-15 248-12c119 4 193-116 119-204-19-37-229-152-254-187-39-35-60-79-60-125 0-90 81-156 191-156 44 0 107 20 146 27 10 2 17-15 35-10l19 136h-19c-29-77-98-128-173-128-116 0-156 120-77 188 27 23 40 35 118 84 142 90 184 140 184 221 0 105-94 183-220 183" id="ar"/><path d="M246-368c-33 0-65 69-75 81v153c0 81 0 81 10 94 8 24 62 20 101 20V0H29v-20c23 1 46-9 58-23 11-14 13-25 13-90v-216l-71-26v-18l121-43h21v113c33-45 66-139 141-98 9 5 32 10 55 16l-26 65c-22 0-70-28-95-28" id="as"/><path d="M136-604c-28 0-47-17-47-42 0-23 20-40 47-40s47 17 47 41-20 41-47 41zM18-20c77-11 89-9 89-105v-179c0-56 0-55-56-67l-27-6v-17l139-48h15v317c0 62 1 68 13 83 12 14 26 19 64 22V0H18v-20" id="at"/><path d="M255-52c-39 28-89 75-129 65-56 0-95-36-95-88 0-54 33-80 126-105 41-11 68-23 96-41v-85c7-65-33-99-79-99-38 0-82 36-60 72l-73 36c-23-58 109-139 155-139 43 0 88 24 112 56 34 46 3 251 20 323 3 12 12 18 25 18 16 0 29-6 52-23l5 15c-40 36-83 60-106 60-30 0-47-23-49-65zm-92 27c14 8 60-30 90-47v-128c-19 11-32 17-93 42-43 18-60 38-60 70 0 35 28 63 63 63" id="au"/><path d="M11 0v-20c35 1 61-6 75-22 14-15 14-16 14-95v-434c0-65 0-65-6-72-6-10-55-12-75-16v-18l136-44h16c2 216-4 455 3 664 8 28 34 38 78 37V0H11" id="av"/><g id="h"><use transform="matrix(0.018,0,0,0.018,0,0)" xlink:href="#ar"/><use transform="matrix(0.018,0,0,0.018,9.612,0)" xlink:href="#ao"/><use transform="matrix(0.018,0,0,0.018,17.586,0)" xlink:href="#as"/><use transform="matrix(0.018,0,0,0.018,24.605999999999998,0)" xlink:href="#at"/><use transform="matrix(0.018,0,0,0.018,29.735999999999997,0)" xlink:href="#au"/><use transform="matrix(0.018,0,0,0.018,37.187999999999995,0)" xlink:href="#av"/></g><path d="M226 13C114 13 41-85 40-194c0-134 111-243 247-243 67 0 120 27 120 61 0 18-14 32-32 32-33 10-87-78-125-66-74 0-138 89-138 191 0 108 64 188 151 188 53 0 89-21 131-77l16 9C366-27 301 13 226 13" id="aw"/><path d="M467-254c0 55-3 144-5 192-1 34 24 43 81 42V0H312v-20c107 2 84-88 84-199 0-79-4-106-17-129-17-29-46-45-83-45-36 0-62 10-125 46v213c0 81 1 81 10 94 10 15 26 20 60 20V0H27v-20c31-1 47-8 60-23 11-13 13-26 13-90v-449c0-55 0-55-6-62-3-9-48-12-68-14v-19l129-44h16v352c87-51 132-68 178-68 98 0 118 61 118 183" id="ax"/><path d="M313-387c-24-9-119 47-142 64v189c0 81 1 80 10 94 10 15 27 20 62 20V0H28v-20c24 1 47-9 59-23 23-29 13-170 13-231 0-106 10-71-69-100v-16l124-46h16v93c77-55 147-87 189-87 146 0 113 207 103 365-2 38 28 47 84 45V0H316v-20c46-4 61-12 70-36 8-21 14-117 14-209 0-77-24-117-87-122" id="ay"/><path d="M35-20c80-5 92-18 92-116v-484c-22-17-54-26-90-27v-20h169l505 527v-393c0-76-4-90-29-103-11-6-31-9-76-11v-20h251v20c-51 2-72 5-82 14-15 12-15 13-15 83V7h-28L176-574v433c0 65 3 81 13 97 11 19 34 20 95 24V0H35v-20" id="az"/><path d="M657-436c149-1 101 215 101 367 0 42 30 51 92 49V0H609v-20c49 1 70-7 75-47 4-31 16-253-6-280-13-29-38-46-69-46-33 0-91 25-144 62v197c0 81 1 81 10 94 10 15 27 21 58 20V0H314v-20c29 1 53-8 67-23 21-21 13-159 13-214 0-71-1-79-11-99-11-23-39-38-68-38-33 0-71 16-144 62v198c0 81 1 80 10 94 10 16 29 21 66 20V0H24v-20c28 1 51-8 63-23 24-30 13-175 13-238 0-55-2-64-4-72-3-12-41-20-69-21v-18l128-46h16v86c87-58 148-84 193-84 51 0 89 33 99 85 91-58 152-85 194-85" id="aA"/><g id="i"><use transform="matrix(0.018,0,0,0.018,0,0)" xlink:href="#aw"/><use transform="matrix(0.018,0,0,0.018,7.721999999999999,0)" xlink:href="#ax"/><use transform="matrix(0.018,0,0,0.018,17.945999999999998,0)" xlink:href="#au"/><use transform="matrix(0.018,0,0,0.018,25.398,0)" xlink:href="#ay"/><use transform="matrix(0.018,0,0,0.018,35.513999999999996,0)" xlink:href="#ay"/><use transform="matrix(0.018,0,0,0.018,45.395999999999994,0)" xlink:href="#ao"/><use transform="matrix(0.018,0,0,0.018,53.333999999999996,0)" xlink:href="#av"/><use transform="matrix(0.018,0,0,0.018,58.032,0)" xlink:href="#az"/><use transform="matrix(0.018,0,0,0.018,73.746,0)" xlink:href="#au"/><use transform="matrix(0.018,0,0,0.018,81.198,0)" xlink:href="#aA"/><use transform="matrix(0.018,0,0,0.018,96.37199999999999,0)" xlink:href="#ao"/></g><path d="M103-41C88-65 87-77 87-154v-224H38v-17c40-19 81-73 102-136h18v106h153l-17 47H158v199c0 77 2 91 16 109 41 51 89 42 121-21l17 15C277 22 157 46 103-41" id="aB"/><path d="M21 149C7 99 127 41 136 16 45 10-15-79 88-113c34-11 44-18 55-26-66-24-103-72-103-133 0-92 82-164 188-164 49 0 91 15 120 42 50-1 85-3 141-11v67c-41-2-85-7-107-13 67 133-62 252-220 218 1 9-64 28-64 55 0 17 19 25 63 32 34 5 224-1 254 24 37 14 64 54 64 95 0 112-160 177-291 177-99 0-167-41-167-101zm204-295c62 0 104-51 104-127 0-83-48-144-114-144-61 0-104 48-104 116 0 90 47 155 114 155zM157 20c3 9-69 54-69 91 0 56 76 108 157 108 94 0 178-60 178-126 0-32-19-54-56-62 32-4-184-6-210-11" id="aC"/><path d="M270 231C182 136 78-53 78-237c0-176 102-371 192-469l30 26c-80 91-163 265-163 443 0 170 82 350 163 442" id="aD"/><path d="M188-344c47-32 149-128 149-186 0-54-47-99-105-99-55 0-113 42-144 105l-19-7c36-93 114-153 199-153 80 0 140 51 140 120 0 54-39 108-112 152 103-6 175 73 175 176 0 133-128 251-272 251-86 0-161-36-161-77 0-19 16-36 34-36 16 0 26 6 64 37 46 37 67 47 100 47 84 0 155-90 155-195 0-119-106-194-192-119" id="aE"/><path d="M117-71C-21-248 27-684 263-684c56 0 102 30 146 86C552-417 487 15 263 15c-56 0-103-31-146-86zm146-594c-131 0-143 165-143 327 0 106 13 204 33 252 22 52 63 82 110 82 52 0 93-35 115-95 37-101 37-394-5-485-22-50-63-81-110-81" id="aF"/><path d="M25 205c79-91 163-265 163-442 0-171-82-350-163-443l30-26c87 96 192 284 192 469 0 175-104 370-192 468" id="aG"/><g id="j"><use transform="matrix(0.018,0,0,0.018,0,0)" xlink:href="#ar"/><use transform="matrix(0.018,0,0,0.018,9.341999999999999,0)" xlink:href="#aB"/><use transform="matrix(0.018,0,0,0.018,15.084,0)" xlink:href="#as"/><use transform="matrix(0.018,0,0,0.018,22.104,0)" xlink:href="#at"/><use transform="matrix(0.018,0,0,0.018,27.125999999999998,0)" xlink:href="#ay"/><use transform="matrix(0.018,0,0,0.018,37.385999999999996,0)" xlink:href="#aC"/><use transform="matrix(0.018,0,0,0.018,46.116,0)" xlink:href="#aD"/><use transform="matrix(0.018,0,0,0.018,51.94799999999999,0)" xlink:href="#aE"/><use transform="matrix(0.018,0,0,0.018,61.43399999999999,0)" xlink:href="#aF"/><use transform="matrix(0.018,0,0,0.018,70.91999999999999,0)" xlink:href="#aG"/></g><path d="M226 9L85-316c-33-77-38-82-95-89v-20h219v20c-90 9-78 15-51 81L263-78l102-232c32-59 15-90-62-95v-20h187v20c-50 12-62 26-100 112L258 9h-32" id="aH"/><path d="M450-117c0 86 20 68 78 54v22L392 13h-13v-77c-72 51-129 77-169 77-94 0-171-93-171-208 0-171 171-287 340-216v-183c0-56-1-56-43-61l-36-4v-18l137-44h13v604zM110-226c0 107 62 192 140 192 33 0 84-20 129-51v-237c-40-57-79-81-131-81-80 0-138 74-138 177" id="aI"/><g id="k"><use transform="matrix(0.018,0,0,0.018,0,0)" xlink:href="#ar"/><use transform="matrix(0.018,0,0,0.018,9.612,0)" xlink:href="#ao"/><use transform="matrix(0.018,0,0,0.018,17.586,0)" xlink:href="#as"/><use transform="matrix(0.018,0,0,0.018,24.912,0)" xlink:href="#aH"/><use transform="matrix(0.018,0,0,0.018,33.156,0)" xlink:href="#ao"/><use transform="matrix(0.018,0,0,0.018,41.129999999999995,0)" xlink:href="#as"/><use transform="matrix(0.018,0,0,0.018,47.574,0)" xlink:href="#ak"/><use transform="matrix(0.018,0,0,0.018,53.568,0)" xlink:href="#aI"/></g><path d="M490-256c-12-69-12-82-104-82H215v203c0 75 1 78 16 94 13 15 40 22 78 21V0H48v-20c69-5 78-21 78-115v-397c0-94-10-111-80-115v-20h481v126h-20c-1-32-7-51-18-65-16-19-29-22-101-22H215v251h176c87 1 86-9 99-68h18v189h-18" id="aJ"/><g id="l"><use transform="matrix(0.018,0,0,0.018,0,0)" xlink:href="#aJ"/><use transform="matrix(0.018,0,0,0.018,10.277999999999999,0)" xlink:href="#an"/><use transform="matrix(0.018,0,0,0.018,23.669999999999995,0)" xlink:href="#ao"/><use transform="matrix(0.018,0,0,0.018,31.913999999999994,0)" xlink:href="#ap"/></g><path d="M22 0v-20c40 2 75-4 89-21s16-18 16-94v-398c0-63-4-80-16-94-13-16-40-21-88-20v-20c242-13 557-52 557 180 0 81-54 148-141 175 51 40 74 62 175 165C710-49 773-12 856-7v19c-79 2-157-5-199-25-40-19-68-41-158-131-75-74-129-123-155-139-44 3-82 5-128 1 5 61-13 221 16 241 13 19 54 23 95 21V0H22zm194-302c160 19 263-33 263-177 0-137-104-194-263-176v353" id="aK"/><path d="M412-619c-32-21-91-55-126-55-46 0-86 31-104 74-12 27-14 91-14 175h109l7 47H168v250c0 68 2 81 15 93 12 16 69 16 106 15V0H24v-20c28 1 54-5 62-17 10-14 11-25 11-96v-245H18v-18c27-6 58-17 79-29 1-92 16-140 57-193 52-65 118-104 178-104 47 0 111 29 111 50 0 15-22 53-31 53" id="aL"/><path d="M177 13c-22 0-50-8-77-15-8 0-12 4-17 14H66L55-108h17C80-46 120-6 173-6c42 0 76-32 76-72 0-36-26-67-98-115-82-55-97-74-97-122 0-103 127-148 223-105l3 99h-19c-9-55-42-90-85-90-37 0-66 27-66 61 0 35 18 55 84 97 73 46 116 60 116 144 0 69-58 122-133 122" id="aM"/><g id="m"><use transform="matrix(0.018,0,0,0.018,0,0)" xlink:href="#aK"/><use transform="matrix(0.018,0,0,0.018,14.759999999999998,0)" xlink:href="#ao"/><use transform="matrix(0.018,0,0,0.018,22.733999999999998,0)" xlink:href="#aL"/><use transform="matrix(0.018,0,0,0.018,28.098,0)" xlink:href="#aM"/></g><g id="n"><use transform="matrix(0.018,0,0,0.018,0,0)" xlink:href="#ar"/><use transform="matrix(0.018,0,0,0.018,9.612,0)" xlink:href="#ao"/><use transform="matrix(0.018,0,0,0.018,17.586,0)" xlink:href="#as"/><use transform="matrix(0.018,0,0,0.018,24.912,0)" xlink:href="#aH"/><use transform="matrix(0.018,0,0,0.018,33.156,0)" xlink:href="#ao"/><use transform="matrix(0.018,0,0,0.018,41.129999999999995,0)" xlink:href="#as"/><use transform="matrix(0.018,0,0,0.018,47.64600000000001,0)" xlink:href="#aM"/><use transform="matrix(0.018,0,0,0.018,53.838,0)" xlink:href="#aD"/><use transform="matrix(0.018,0,0,0.018,59.67,0)" xlink:href="#at"/><use transform="matrix(0.018,0,0,0.018,64.458,0)" xlink:href="#aI"/><use transform="matrix(0.018,0,0,0.018,74.106,0)" xlink:href="#aG"/></g><filter id="d" filterUnits="objectBoundingBox" x="-.02" y="-.03" width="1.04" height="1.16"><feOffset result="offOut" in="SourceAlpha" dy="6"/><feGaussianBlur result="blurOut" in="offOut" stdDeviation="5"/><feColorMatrix result="colorOut" in="blurOut" values="0 0 0 0 0 0 0 0 0 0 0 0 0 0 0 0 0 0 0.5019607843137255 0"/><feBlend in="SourceGraphic" in2="colorOut"/></filter><path d="M20 0v-34c50 2 68-17 68-75v-176c6-63-27-67-68-83v-27l176-66h23v120c69-113 55-119 140-98l62 24c-12 41-33 89-51 114-26-8-58-27-88-27-20 0-40 15-63 48v161c-4 81 28 88 100 85V0H20" id="aN"/><path d="M237 6L86-319c-30-64-45-81-91-85v-34h272v34c-28 0-67-2-61 23 0 10 4 22 15 46l91 205 83-190c24-54 16-77-63-84v-34h214v34c-58 4-68 17-106 102L303 6h-66" id="aO"/><g id="p"><use transform="matrix(0.022222222222222223,0,0,0.022222222222222223,0,0)" xlink:href="#af"/><use transform="matrix(0.022222222222222223,0,0,0.022222222222222223,13.488888888888889,0)" xlink:href="#ae"/><use transform="matrix(0.022222222222222223,0,0,0.022222222222222223,24.511111111111113,0)" xlink:href="#aN"/><use transform="matrix(0.022222222222222223,0,0,0.022222222222222223,34.68888888888889,0)" xlink:href="#aO"/><use transform="matrix(0.022222222222222223,0,0,0.022222222222222223,46.355555555555554,0)" xlink:href="#ae"/><use transform="matrix(0.022222222222222223,0,0,0.022222222222222223,57.37777777777778,0)" xlink:href="#aN"/><use transform="matrix(0.022222222222222223,0,0,0.022222222222222223,66.73333333333333,0)" xlink:href="#Y"/></g><g id="q"><use transform="matrix(0.018,0,0,0.018,0,0)" xlink:href="#ak"/><use transform="matrix(0.018,0,0,0.018,6.624,0)" xlink:href="#al"/></g><g id="r"><use transform="matrix(0.018,0,0,0.018,0,0)" xlink:href="#am"/><use transform="matrix(0.018,0,0,0.018,10.889999999999999,0)" xlink:href="#an"/><use transform="matrix(0.018,0,0,0.018,24.281999999999996,0)" xlink:href="#ao"/><use transform="matrix(0.018,0,0,0.018,32.525999999999996,0)" xlink:href="#ap"/><use transform="matrix(0.018,0,0,0.018,41.22,0)" xlink:href="#aq"/></g><g id="s"><use transform="matrix(0.018,0,0,0.018,0,0)" xlink:href="#ar"/><use transform="matrix(0.018,0,0,0.018,9.612,0)" xlink:href="#ao"/><use transform="matrix(0.018,0,0,0.018,17.586,0)" xlink:href="#as"/><use transform="matrix(0.018,0,0,0.018,24.605999999999998,0)" xlink:href="#at"/><use transform="matrix(0.018,0,0,0.018,29.735999999999997,0)" xlink:href="#au"/><use transform="matrix(0.018,0,0,0.018,37.187999999999995,0)" xlink:href="#av"/></g><g id="t"><use transform="matrix(0.018,0,0,0.018,0,0)" xlink:href="#aM"/><use transform="matrix(0.018,0,0,0.018,6.191999999999999,0)" xlink:href="#ao"/><use transform="matrix(0.018,0,0,0.018,14.166,0)" xlink:href="#as"/><use transform="matrix(0.018,0,0,0.018,21.492,0)" xlink:href="#aH"/><use transform="matrix(0.018,0,0,0.018,29.736,0)" xlink:href="#ao"/><use transform="matrix(0.018,0,0,0.018,37.709999999999994,0)" xlink:href="#as"/><use transform="matrix(0.018,0,0,0.018,44.154,0)" xlink:href="#az"/><use transform="matrix(0.018,0,0,0.018,59.868,0)" xlink:href="#au"/><use transform="matrix(0.018,0,0,0.018,67.32000000000001,0)" xlink:href="#aA"/><use transform="matrix(0.018,0,0,0.018,82.494,0)" xlink:href="#ao"/></g><g id="u"><use transform="matrix(0.018,0,0,0.018,0,0)" xlink:href="#ar"/><use transform="matrix(0.018,0,0,0.018,9.341999999999999,0)" xlink:href="#aB"/><use transform="matrix(0.018,0,0,0.018,15.084,0)" xlink:href="#as"/><use transform="matrix(0.018,0,0,0.018,22.104,0)" xlink:href="#at"/><use transform="matrix(0.018,0,0,0.018,27.125999999999998,0)" xlink:href="#ay"/><use transform="matrix(0.018,0,0,0.018,37.385999999999996,0)" xlink:href="#aC"/><use transform="matrix(0.018,0,0,0.018,46.116,0)" xlink:href="#aD"/><use transform="matrix(0.018,0,0,0.018,51.94799999999999,0)" xlink:href="#aE"/><use transform="matrix(0.018,0,0,0.018,61.43399999999999,0)" xlink:href="#aF"/><use transform="matrix(0.018,0,0,0.018,70.91999999999999,0)" xlink:href="#aG"/></g><filter id="o" filterUnits="objectBoundingBox" x="-.02" y="-.04" width="1.04" height="1.21"><feOffset result="offOut" in="SourceAlpha" dy="6"/><feGaussianBlur result="blurOut" in="offOut" stdDeviation="5"/><feColorMatrix result="colorOut" in="blurOut" values="0 0 0 0 0 0 0 0 0 0 0 0 0 0 0 0 0 0 0.5019607843137255 0"/><feBlend in="SourceGraphic" in2="colorOut"/></filter><path d="M830-625c-84 8-106 11-106 118 0 113 9 286-20 360C663-42 566 15 416 15c-159 0-275-64-300-174-22-97-10-255-10-372 0-94-13-86-93-94v-42h336v42c-74 4-95 11-95 94v265c0 73 4 96 23 128 30 52 93 82 173 82 149 0 209-76 209-252v-187c0-109-15-126-107-130v-42h278v42" id="aP"/><g id="w"><use transform="matrix(0.024444444444444446,0,0,0.024444444444444446,0,0)" xlink:href="#aP"/><use transform="matrix(0.024444444444444446,0,0,0.024444444444444446,19.94666666666667,0)" xlink:href="#Y"/><use transform="matrix(0.024444444444444446,0,0,0.024444444444444446,29.773333333333333,0)" xlink:href="#ae"/><use transform="matrix(0.024444444444444446,0,0,0.024444444444444446,41.89777777777778,0)" xlink:href="#aN"/><use transform="matrix(0.024444444444444446,0,0,0.024444444444444446,52.18888888888889,0)" xlink:href="#Y"/></g><path d="M203 13C132 13 90-27 90-126v-210c7-38-30-46-67-54v-16l138-30v251c0 75 0 90 16 109 57 67 140 38 209-22v-199c0-55-1-62-7-72-7-12-9-14-55-21l-32-5v-15l165-26v359c-3 51 38 30 72 27v19L386 13v-87c-78 57-141 87-183 87" id="aQ"/><path d="M370-365c102 3 83-14 101-81h20v205h-20c-3-28-8-47-17-62-12-21-20-23-87-23H216v195c0 53 2 66 10 77 16 26 130 15 179 15 78 0 97-5 117-28 17-20 33-55 42-93h20L567 0H-4v-21c45 1 94-3 110-17 17-15 21-26 21-97v-397c0-66-3-79-15-94-15-18-54-23-94-21v-20h515l9 149h-20c-5-39-15-69-27-89-14-23-23-25-92-25H216v267h154" id="aR"/><g id="x"><use transform="matrix(0.018,0,0,0.018,0,0)" xlink:href="#aQ"/><use transform="matrix(0.018,0,0,0.018,9.953999999999999,0)" xlink:href="#aM"/><use transform="matrix(0.018,0,0,0.018,16.145999999999997,0)" xlink:href="#ao"/><use transform="matrix(0.018,0,0,0.018,24.119999999999997,0)" xlink:href="#as"/><use transform="matrix(0.018,0,0,0.018,30.563999999999997,0)" xlink:href="#aR"/><use transform="matrix(0.018,0,0,0.018,41.903999999999996,0)" xlink:href="#aA"/><use transform="matrix(0.018,0,0,0.018,57.56399999999999,0)" xlink:href="#au"/><use transform="matrix(0.018,0,0,0.018,65.01599999999999,0)" xlink:href="#at"/><use transform="matrix(0.018,0,0,0.018,70.038,0)" xlink:href="#av"/></g><path d="M39-195v-24l316-465h30v436h108v53H385V15h-71v-210H39zm50-53h225v-333" id="aS"/><g id="y"><use transform="matrix(0.018,0,0,0.018,0,0)" xlink:href="#ar"/><use transform="matrix(0.018,0,0,0.018,9.341999999999999,0)" xlink:href="#aB"/><use transform="matrix(0.018,0,0,0.018,15.084,0)" xlink:href="#as"/><use transform="matrix(0.018,0,0,0.018,22.104,0)" xlink:href="#at"/><use transform="matrix(0.018,0,0,0.018,27.125999999999998,0)" xlink:href="#ay"/><use transform="matrix(0.018,0,0,0.018,37.385999999999996,0)" xlink:href="#aC"/><use transform="matrix(0.018,0,0,0.018,46.116,0)" xlink:href="#aD"/><use transform="matrix(0.018,0,0,0.018,51.94799999999999,0)" xlink:href="#aS"/><use transform="matrix(0.018,0,0,0.018,61.43399999999999,0)" xlink:href="#aF"/><use transform="matrix(0.018,0,0,0.018,70.91999999999999,0)" xlink:href="#aG"/></g><path d="M40-201c0-184 198-298 362-199 15-13 24-41 53-35-5 21-6 38-6 119v431c0 72 1 81 16 96 13 14 33 20 58 19v20H263v-20c43 1 89 2 104-23 8-14 11-27 11-92V-66C319-15 268 8 215 8 114 8 40-81 40-201zm71-29c0 109 65 193 150 193 34 0 80-21 117-54-3-79 12-242-23-269-23-33-58-51-99-51-88 0-145 71-145 181" id="aT"/><g id="z"><use transform="matrix(0.018,0,0,0.018,0,0)" xlink:href="#aQ"/><use transform="matrix(0.018,0,0,0.018,10.043999999999999,0)" xlink:href="#ay"/><use transform="matrix(0.018,0,0,0.018,20.16,0)" xlink:href="#at"/><use transform="matrix(0.018,0,0,0.018,24.875999999999994,0)" xlink:href="#aT"/><use transform="matrix(0.018,0,0,0.018,34.181999999999995,0)" xlink:href="#aQ"/><use transform="matrix(0.018,0,0,0.018,43.99199999999999,0)" xlink:href="#ao"/></g><g id="A"><use transform="matrix(0.018,0,0,0.018,0,0)" xlink:href="#aQ"/><use transform="matrix(0.018,0,0,0.018,9.953999999999999,0)" xlink:href="#aM"/><use transform="matrix(0.018,0,0,0.018,16.145999999999997,0)" xlink:href="#ao"/><use transform="matrix(0.018,0,0,0.018,24.119999999999997,0)" xlink:href="#as"/><use transform="matrix(0.018,0,0,0.018,30.563999999999997,0)" xlink:href="#az"/><use transform="matrix(0.018,0,0,0.018,46.278,0)" xlink:href="#au"/><use transform="matrix(0.018,0,0,0.018,53.73,0)" xlink:href="#aA"/><use transform="matrix(0.018,0,0,0.018,68.904,0)" xlink:href="#ao"/></g><g id="B"><use transform="matrix(0.018,0,0,0.018,0,0)" xlink:href="#ar"/><use transform="matrix(0.018,0,0,0.018,9.341999999999999,0)" xlink:href="#aB"/><use transform="matrix(0.018,0,0,0.018,15.084,0)" xlink:href="#as"/><use transform="matrix(0.018,0,0,0.018,22.104,0)" xlink:href="#at"/><use transform="matrix(0.018,0,0,0.018,27.125999999999998,0)" xlink:href="#ay"/><use transform="matrix(0.018,0,0,0.018,37.385999999999996,0)" xlink:href="#aC"/><use transform="matrix(0.018,0,0,0.018,46.116,0)" xlink:href="#aD"/><use transform="matrix(0.018,0,0,0.018,51.94799999999999,0)" xlink:href="#aE"/><use transform="matrix(0.018,0,0,0.018,61.43399999999999,0)" xlink:href="#aF"/><use transform="matrix(0.018,0,0,0.018,70.91999999999999,0)" xlink:href="#aG"/></g><g id="C"><use transform="matrix(0.018,0,0,0.018,0,0)" xlink:href="#aQ"/><use transform="matrix(0.018,0,0,0.018,10.043999999999999,0)" xlink:href="#ay"/><use transform="matrix(0.018,0,0,0.018,20.16,0)" xlink:href="#at"/><use transform="matrix(0.018,0,0,0.018,24.875999999999994,0)" xlink:href="#aT"/><use transform="matrix(0.018,0,0,0.018,34.181999999999995,0)" xlink:href="#aQ"/><use transform="matrix(0.018,0,0,0.018,43.99199999999999,0)" xlink:href="#ao"/></g><path d="M36 0v-20c37 1 62-6 75-21 15-16 16-19 16-94v-397c0-94-9-109-77-115v-20h255v20c-37 0-60 5-73 21-15 17-16 19-16 94v177h421v-177c0-65-3-79-15-94-14-17-50-23-90-21v-20h276v20c-72 4-82 20-82 115v397c0 75 2 78 16 94 14 15 42 22 81 21V0H520v-20c94-5 117 4 117-115v-184H216v184c0 75 1 78 16 94 13 15 38 22 74 21V0H36" id="aU"/><path d="M230 9L86-315c-33-75-43-84-96-90v-20h208v20c-71 9-66 23-41 80L268-75l106-250c-26-62-45-77-105-80v-20h222v20c-72 3-60 35-39 86l99 239 87-213c19-46 24-62 24-75 0-28-14-35-71-37v-20h180v20c-53 7-67 25-107 124L546 9h-30L388-293 260 9h-30" id="aV"/><path d="M274 13C149 13 40-81 40-214c0-125 100-222 230-222 131 0 232 98 232 226C502-85 402 13 274 13zM120-244c0 128 74 232 166 232 78 0 136-74 136-172 0-123-76-227-166-227-78 0-136 71-136 167" id="aW"/><g id="D"><use transform="matrix(0.018,0,0,0.018,0,0)" xlink:href="#aU"/><use transform="matrix(0.018,0,0,0.018,15.552,0)" xlink:href="#au"/><use transform="matrix(0.018,0,0,0.018,23.129999999999995,0)" xlink:href="#aM"/><use transform="matrix(0.018,0,0,0.018,29.321999999999992,0)" xlink:href="#ax"/><use transform="matrix(0.018,0,0,0.018,39.13199999999999,0)" xlink:href="#ao"/><use transform="matrix(0.018,0,0,0.018,47.37599999999999,0)" xlink:href="#aI"/><use transform="matrix(0.018,0,0,0.018,57.02399999999999,0)" xlink:href="#am"/><use transform="matrix(0.018,0,0,0.018,67.51799999999999,0)" xlink:href="#au"/><use transform="matrix(0.018,0,0,0.018,75.09599999999999,0)" xlink:href="#aM"/><use transform="matrix(0.018,0,0,0.018,81.19799999999998,0)" xlink:href="#aM"/><use transform="matrix(0.018,0,0,0.018,87.58799999999997,0)" xlink:href="#aV"/><use transform="matrix(0.018,0,0,0.018,100.85399999999996,0)" xlink:href="#aW"/><use transform="matrix(0.018,0,0,0.018,110.42999999999994,0)" xlink:href="#as"/><use transform="matrix(0.018,0,0,0.018,116.69399999999995,0)" xlink:href="#aI"/></g><path d="M84-39c0-28 24-50 55-50 33 0 56 22 56 51 0 30-23 51-56 51-32 0-55-22-55-52" id="aX"/><path d="M315-677c152 0 269 38 269 157 0 66-51 122-123 136 102 31 159 96 159 182 0 77-50 155-122 183C407 16 137-5-3 0v-20c45 1 91-3 108-18s21-27 21-96v-399c0-63-3-80-16-94-10-19-57-21-104-20v-20c161-7 264-10 309-10zm171 163c0-99-68-144-192-144-25 0-40 1-79 4v265c79 0 206 4 227-26 28-21 44-57 44-99zM215-180C213-51 228-36 338-29c115 7 181-65 181-168 0-61-32-117-82-146-34-31-139-24-222-25v188" id="aY"/><g id="E"><use transform="matrix(0.018,0,0,0.018,0,0)" xlink:href="#ar"/><use transform="matrix(0.018,0,0,0.018,9.341999999999999,0)" xlink:href="#aB"/><use transform="matrix(0.018,0,0,0.018,15.084,0)" xlink:href="#as"/><use transform="matrix(0.018,0,0,0.018,22.104,0)" xlink:href="#at"/><use transform="matrix(0.018,0,0,0.018,27.125999999999998,0)" xlink:href="#ay"/><use transform="matrix(0.018,0,0,0.018,37.385999999999996,0)" xlink:href="#aC"/><use transform="matrix(0.018,0,0,0.018,46.116,0)" xlink:href="#aX"/><use transform="matrix(0.018,0,0,0.018,51.13799999999999,0)" xlink:href="#aY"/><use transform="matrix(0.018,0,0,0.018,63.342,0)" xlink:href="#at"/><use transform="matrix(0.018,0,0,0.018,68.36399999999999,0)" xlink:href="#ay"/><use transform="matrix(0.018,0,0,0.018,78.67799999999998,0)" xlink:href="#au"/><use transform="matrix(0.018,0,0,0.018,86.12999999999998,0)" xlink:href="#as"/><use transform="matrix(0.018,0,0,0.018,92.57399999999997,0)" xlink:href="#ap"/><use transform="matrix(0.018,0,0,0.018,101.26799999999999,0)" xlink:href="#aq"/></g><g id="F"><use transform="matrix(0.018,0,0,0.018,0,0)" xlink:href="#ar"/><use transform="matrix(0.018,0,0,0.018,9.612,0)" xlink:href="#ao"/><use transform="matrix(0.018,0,0,0.018,17.586,0)" xlink:href="#as"/><use transform="matrix(0.018,0,0,0.018,24.912,0)" xlink:href="#aH"/><use transform="matrix(0.018,0,0,0.018,33.156,0)" xlink:href="#ao"/><use transform="matrix(0.018,0,0,0.018,41.129999999999995,0)" xlink:href="#as"/><use transform="matrix(0.018,0,0,0.018,47.574,0)" xlink:href="#ak"/><use transform="matrix(0.018,0,0,0.018,53.568,0)" xlink:href="#aI"/></g><g id="G"><use transform="matrix(0.018,0,0,0.018,0,0)" xlink:href="#aJ"/><use transform="matrix(0.018,0,0,0.018,10.277999999999999,0)" xlink:href="#an"/><use transform="matrix(0.018,0,0,0.018,23.669999999999995,0)" xlink:href="#ao"/><use transform="matrix(0.018,0,0,0.018,31.913999999999994,0)" xlink:href="#ap"/></g><g id="H"><use transform="matrix(0.018,0,0,0.018,0,0)" xlink:href="#aK"/><use transform="matrix(0.018,0,0,0.018,14.759999999999998,0)" xlink:href="#ao"/><use transform="matrix(0.018,0,0,0.018,22.733999999999998,0)" xlink:href="#aL"/><use transform="matrix(0.018,0,0,0.018,28.098,0)" xlink:href="#aM"/></g><g id="I"><use transform="matrix(0.018,0,0,0.018,0,0)" xlink:href="#ar"/><use transform="matrix(0.018,0,0,0.018,9.612,0)" xlink:href="#ao"/><use transform="matrix(0.018,0,0,0.018,17.586,0)" xlink:href="#as"/><use transform="matrix(0.018,0,0,0.018,24.912,0)" xlink:href="#aH"/><use transform="matrix(0.018,0,0,0.018,33.156,0)" xlink:href="#ao"/><use transform="matrix(0.018,0,0,0.018,41.129999999999995,0)" xlink:href="#as"/><use transform="matrix(0.018,0,0,0.018,47.64600000000001,0)" xlink:href="#aM"/><use transform="matrix(0.018,0,0,0.018,53.838,0)" xlink:href="#aD"/><use transform="matrix(0.018,0,0,0.018,59.67,0)" xlink:href="#at"/><use transform="matrix(0.018,0,0,0.018,64.458,0)" xlink:href="#aI"/><use transform="matrix(0.018,0,0,0.018,74.106,0)" xlink:href="#aG"/></g><filter id="v" filterUnits="objectBoundingBox" x="-.02" y="-.02" width="1.04" height="1.11"><feOffset result="offOut" in="SourceAlpha" dy="6"/><feGaussianBlur result="blurOut" in="offOut" stdDeviation="5"/><feColorMatrix result="colorOut" in="blurOut" values="0 0 0 0 0 0 0 0 0 0 0 0 0 0 0 0 0 0 0.5019607843137255 0"/><feBlend in="SourceGraphic" in2="colorOut"/></filter><path d="M21 0v-42c76-1 85-14 91-113 8-138 25-275 25-414 0-39-18-53-72-56v-42h226l209 451 200-451h231v42c-74 0-82 15-78 82l26 395c6 94 11 99 95 106V0H636v-42c96 8 104-27 98-120l-25-381L468 0h-26L196-530c-8 139-20 275-26 416-2 55 21 72 89 72V0H21" id="aZ"/><path d="M304-55c133 0 255 22 255 124S428 248 255 248c-123 0-218-46-218-107 0-31 19-51 67-72 21-9 28-15 37-30C54 15 6-85 103-123c15-6 30-11 92-30-74-4-140-67-140-132 0-93 95-164 219-164 58 0 106 14 144 42l152-39v111l-108-25c79 126-69 231-204 219-73 25-89 34-89 51 0 22 48 35 135 35zm-31-129c50 0 78-34 78-96 0-77-32-125-84-125-50 0-80 38-80 101 0 78 30 120 86 120zM192 50c-96 65-3 152 117 152 87 0 154-39 154-90 0-39-31-58-106-55-53 3-130 4-165-7" id="ba"/><g id="K"><use transform="matrix(0.022222222222222223,0,0,0.022222222222222223,0,0)" xlink:href="#aZ"/><use transform="matrix(0.022222222222222223,0,0,0.022222222222222223,21.88888888888889,0)" xlink:href="#ae"/><use transform="matrix(0.022222222222222223,0,0,0.022222222222222223,33.13333333333333,0)" xlink:href="#Y"/><use transform="matrix(0.022222222222222223,0,0,0.022222222222222223,42.06666666666666,0)" xlink:href="#Y"/><use transform="matrix(0.022222222222222223,0,0,0.022222222222222223,51,0)" xlink:href="#ab"/><use transform="matrix(0.022222222222222223,0,0,0.022222222222222223,62.22222222222222,0)" xlink:href="#ba"/><use transform="matrix(0.022222222222222223,0,0,0.022222222222222223,74.97777777777777,0)" xlink:href="#ae"/><use transform="matrix(0.022222222222222223,0,0,0.022222222222222223,86.22222222222221,0)" xlink:href="#Y"/></g><g id="L"><use transform="matrix(0.018,0,0,0.018,0,0)" xlink:href="#ak"/><use transform="matrix(0.018,0,0,0.018,6.624,0)" xlink:href="#al"/></g><g id="M"><use transform="matrix(0.018,0,0,0.018,0,0)" xlink:href="#am"/><use transform="matrix(0.018,0,0,0.018,10.889999999999999,0)" xlink:href="#an"/><use transform="matrix(0.018,0,0,0.018,24.281999999999996,0)" xlink:href="#ao"/><use transform="matrix(0.018,0,0,0.018,32.525999999999996,0)" xlink:href="#ap"/><use transform="matrix(0.018,0,0,0.018,41.22,0)" xlink:href="#aq"/></g><g id="N"><use transform="matrix(0.018,0,0,0.018,0,0)" xlink:href="#ar"/><use transform="matrix(0.018,0,0,0.018,9.612,0)" xlink:href="#ao"/><use transform="matrix(0.018,0,0,0.018,17.586,0)" xlink:href="#as"/><use transform="matrix(0.018,0,0,0.018,24.605999999999998,0)" xlink:href="#at"/><use transform="matrix(0.018,0,0,0.018,29.735999999999997,0)" xlink:href="#au"/><use transform="matrix(0.018,0,0,0.018,37.187999999999995,0)" xlink:href="#av"/></g><path d="M674-11c-46-12-174 28-243 28C214 17 57-126 57-325c0-209 161-359 385-359 77 0 154 25 227 44 8 2 20-9 35-6l9 154h-20c-36-100-134-166-245-166-171 1-291 130-291 310 0 190 132 336 305 336 114 0 200-52 260-156h21c-11 39-45 118-69 157" id="bb"/><g id="O"><use transform="matrix(0.018,0,0,0.018,0,0)" xlink:href="#aA"/><use transform="matrix(0.018,0,0,0.018,15.174,0)" xlink:href="#ao"/><use transform="matrix(0.018,0,0,0.018,23.345999999999997,0)" xlink:href="#aM"/><use transform="matrix(0.018,0,0,0.018,29.448,0)" xlink:href="#aM"/><use transform="matrix(0.018,0,0,0.018,35.748,0)" xlink:href="#au"/><use transform="matrix(0.018,0,0,0.018,43.541999999999994,0)" xlink:href="#aC"/><use transform="matrix(0.018,0,0,0.018,52.27199999999999,0)" xlink:href="#ao"/><use transform="matrix(0.018,0,0,0.018,60.515999999999984,0)" xlink:href="#bb"/><use transform="matrix(0.018,0,0,0.018,74.71799999999999,0)" xlink:href="#aW"/><use transform="matrix(0.018,0,0,0.018,84.24,0)" xlink:href="#ay"/><use transform="matrix(0.018,0,0,0.018,94.032,0)" xlink:href="#aB"/><use transform="matrix(0.018,0,0,0.018,99.77400000000002,0)" xlink:href="#ao"/><use transform="matrix(0.018,0,0,0.018,107.784,0)" xlink:href="#ay"/><use transform="matrix(0.018,0,0,0.018,117.57600000000001,0)" xlink:href="#aB"/></g><path d="M153 15l259-613H141c-70 0-73 2-82 63H41l8-132h425v22L212 15h-59" id="bc"/><path d="M87-86c34-10 101 89 145 76 79 0 147-84 147-181 0-148-165-220-274-131l-10-7 15-341h229c48 0 50 0 57-14h20l-12 83H132l-8 194c153-82 335 30 335 193C459-84 350 15 208 15 121 15 51-15 51-53c0-18 16-33 36-33" id="bd"/><g id="P"><use transform="matrix(0.018,0,0,0.018,0,0)" xlink:href="#ar"/><use transform="matrix(0.018,0,0,0.018,9.341999999999999,0)" xlink:href="#aB"/><use transform="matrix(0.018,0,0,0.018,15.084,0)" xlink:href="#as"/><use transform="matrix(0.018,0,0,0.018,22.104,0)" xlink:href="#at"/><use transform="matrix(0.018,0,0,0.018,27.125999999999998,0)" xlink:href="#ay"/><use transform="matrix(0.018,0,0,0.018,37.385999999999996,0)" xlink:href="#aC"/><use transform="matrix(0.018,0,0,0.018,46.116,0)" xlink:href="#aD"/><use transform="matrix(0.018,0,0,0.018,51.94799999999999,0)" xlink:href="#bc"/><use transform="matrix(0.018,0,0,0.018,61.43399999999999,0)" xlink:href="#bd"/><use transform="matrix(0.018,0,0,0.018,70.91999999999999,0)" xlink:href="#aF"/><use transform="matrix(0.018,0,0,0.018,80.40599999999999,0)" xlink:href="#aG"/></g><g id="Q"><use transform="matrix(0.018,0,0,0.018,0,0)" xlink:href="#bb"/><use transform="matrix(0.018,0,0,0.018,13.913999999999996,0)" xlink:href="#ax"/><use transform="matrix(0.018,0,0,0.018,24.137999999999998,0)" xlink:href="#au"/><use transform="matrix(0.018,0,0,0.018,31.427999999999997,0)" xlink:href="#aB"/><use transform="matrix(0.018,0,0,0.018,37.169999999999995,0)" xlink:href="#ak"/><use transform="matrix(0.018,0,0,0.018,43.163999999999994,0)" xlink:href="#aI"/></g><g id="R"><use transform="matrix(0.018,0,0,0.018,0,0)" xlink:href="#aJ"/><use transform="matrix(0.018,0,0,0.018,10.277999999999999,0)" xlink:href="#an"/><use transform="matrix(0.018,0,0,0.018,23.669999999999995,0)" xlink:href="#ao"/><use transform="matrix(0.018,0,0,0.018,31.913999999999994,0)" xlink:href="#ap"/></g><g id="S"><use transform="matrix(0.018,0,0,0.018,0,0)" xlink:href="#aK"/><use transform="matrix(0.018,0,0,0.018,14.759999999999998,0)" xlink:href="#ao"/><use transform="matrix(0.018,0,0,0.018,22.733999999999998,0)" xlink:href="#aL"/><use transform="matrix(0.018,0,0,0.018,28.098,0)" xlink:href="#aM"/></g><g id="T"><use transform="matrix(0.018,0,0,0.018,0,0)" xlink:href="#bb"/><use transform="matrix(0.018,0,0,0.018,13.913999999999996,0)" xlink:href="#ax"/><use transform="matrix(0.018,0,0,0.018,24.137999999999998,0)" xlink:href="#au"/><use transform="matrix(0.018,0,0,0.018,31.589999999999996,0)" xlink:href="#ay"/><use transform="matrix(0.018,0,0,0.018,41.705999999999996,0)" xlink:href="#ay"/><use transform="matrix(0.018,0,0,0.018,51.587999999999994,0)" xlink:href="#ao"/><use transform="matrix(0.018,0,0,0.018,59.525999999999996,0)" xlink:href="#av"/><use transform="matrix(0.018,0,0,0.018,64.22399999999999,0)" xlink:href="#aM"/><use transform="matrix(0.018,0,0,0.018,70.41599999999998,0)" xlink:href="#aD"/><use transform="matrix(0.018,0,0,0.018,76.24799999999998,0)" xlink:href="#at"/><use transform="matrix(0.018,0,0,0.018,81.03599999999999,0)" xlink:href="#aI"/><use transform="matrix(0.018,0,0,0.018,90.68399999999998,0)" xlink:href="#aG"/></g><path d="M451-39c166 0 259-83 244-273-6-88 17-281-26-315-17-13-33-18-79-20v-20h252v20c-37 2-58 8-75 24-20 20-23 32-23 117 0 86 6 257-7 317C710-67 593 17 428 17 308 17 218-22 163-97c-37-51-46-91-46-206v-230c0-105-7-114-92-115v-19h276v20c-38-1-66 6-79 21-15 16-16 18-16 94 0 94-8 251 6 325C232-99 321-39 451-39" id="be"/><g id="U"><use transform="matrix(0.018,0,0,0.018,0,0)" xlink:href="#be"/><use transform="matrix(0.018,0,0,0.018,15.011999999999999,0)" xlink:href="#aM"/><use transform="matrix(0.018,0,0,0.018,21.203999999999997,0)" xlink:href="#ao"/><use transform="matrix(0.018,0,0,0.018,29.177999999999997,0)" xlink:href="#as"/><use transform="matrix(0.018,0,0,0.018,35.622,0)" xlink:href="#ak"/><use transform="matrix(0.018,0,0,0.018,41.616,0)" xlink:href="#aI"/></g><g id="V"><use transform="matrix(0.018,0,0,0.018,0,0)" xlink:href="#be"/><use transform="matrix(0.018,0,0,0.018,15.011999999999999,0)" xlink:href="#aM"/><use transform="matrix(0.018,0,0,0.018,21.203999999999997,0)" xlink:href="#ao"/><use transform="matrix(0.018,0,0,0.018,29.177999999999997,0)" xlink:href="#as"/><use transform="matrix(0.018,0,0,0.018,35.693999999999996,0)" xlink:href="#aM"/><use transform="matrix(0.018,0,0,0.018,41.885999999999996,0)" xlink:href="#aD"/><use transform="matrix(0.018,0,0,0.018,47.717999999999996,0)" xlink:href="#at"/><use transform="matrix(0.018,0,0,0.018,52.50599999999999,0)" xlink:href="#aI"/><use transform="matrix(0.018,0,0,0.018,62.153999999999996,0)" xlink:href="#aG"/></g><filter id="J" filterUnits="objectBoundingBox" x="-.02" y="-.03" width="1.04" height="1.13"><feOffset result="offOut" in="SourceAlpha" dy="6"/><feGaussianBlur result="blurOut" in="offOut" stdDeviation="5"/><feColorMatrix result="colorOut" in="blurOut" values="0 0 0 0 0 0 0 0 0 0 0 0 0 0 0 0 0 0 0.5019607843137255 0"/><feBlend in="SourceGraphic" in2="colorOut"/></filter></defs></g></svg>